<svg xmlns="http://www.w3.org/2000/svg" xmlns:xlink="http://www.w3.org/1999/xlink" width="500" zoomAndPan="magnify" viewBox="0 0 375 374.999991" height="500" preserveAspectRatio="xMidYMid meet" version="1.2"><g id="7c6eef4892"><path style=" stroke:none;fill-rule:nonzero;fill:#dd2e44;fill-opacity:1;" d="M 355.832031 300.125 L 325.457031 27.894531 C 323.6875 12.011719 310.261719 0 294.28125 0 L 79.832031 0 C 63.738281 0 50.261719 12.167969 48.613281 28.167969 L 20.800781 300.125 Z M 355.832031 300.125 "/><path style=" stroke:none;fill-rule:nonzero;fill:#be1931;fill-opacity:1;" d="M 285.78125 145.832031 C 285.78125 147.429688 285.742188 149.027344 285.664062 150.621094 C 285.585938 152.214844 285.46875 153.808594 285.3125 155.394531 C 285.15625 156.984375 284.960938 158.570312 284.726562 160.148438 C 284.492188 161.726562 284.21875 163.300781 283.90625 164.867188 C 283.59375 166.433594 283.246094 167.992188 282.855469 169.539062 C 282.46875 171.089844 282.042969 172.625 281.582031 174.152344 C 281.117188 175.683594 280.617188 177.199219 280.078125 178.699219 C 279.539062 180.203125 278.964844 181.695312 278.355469 183.167969 C 277.742188 184.644531 277.097656 186.101562 276.414062 187.546875 C 275.730469 188.988281 275.015625 190.414062 274.261719 191.824219 C 273.507812 193.230469 272.722656 194.621094 271.902344 195.992188 C 271.078125 197.359375 270.226562 198.707031 269.339844 200.035156 C 268.453125 201.363281 267.53125 202.667969 266.582031 203.953125 C 265.628906 205.234375 264.648438 206.492188 263.636719 207.726562 C 262.621094 208.960938 261.578125 210.167969 260.507812 211.351562 C 259.433594 212.535156 258.335938 213.691406 257.207031 214.820312 C 256.078125 215.949219 254.921875 217.050781 253.738281 218.121094 C 252.554688 219.195312 251.347656 220.238281 250.113281 221.25 C 248.878906 222.261719 247.617188 223.246094 246.335938 224.195312 C 245.054688 225.148438 243.75 226.066406 242.421875 226.953125 C 241.09375 227.839844 239.746094 228.695312 238.375 229.515625 C 237.007812 230.335938 235.617188 231.125 234.210938 231.875 C 232.800781 232.628906 231.375 233.347656 229.933594 234.027344 C 228.488281 234.710938 227.03125 235.359375 225.554688 235.96875 C 224.078125 236.582031 222.589844 237.15625 221.085938 237.691406 C 219.582031 238.230469 218.066406 238.730469 216.539062 239.195312 C 215.011719 239.660156 213.472656 240.085938 211.925781 240.472656 C 210.375 240.859375 208.816406 241.210938 207.253906 241.519531 C 205.6875 241.832031 204.113281 242.105469 202.535156 242.339844 C 200.953125 242.574219 199.371094 242.769531 197.78125 242.925781 C 196.191406 243.082031 194.601562 243.199219 193.007812 243.277344 C 191.410156 243.355469 189.816406 243.394531 188.21875 243.394531 C 186.621094 243.394531 185.027344 243.355469 183.429688 243.277344 C 181.835938 243.199219 180.246094 243.082031 178.65625 242.925781 C 177.066406 242.769531 175.484375 242.574219 173.902344 242.339844 C 172.324219 242.105469 170.75 241.832031 169.183594 241.519531 C 167.621094 241.210938 166.0625 240.859375 164.511719 240.472656 C 162.964844 240.085938 161.425781 239.660156 159.898438 239.195312 C 158.371094 238.730469 156.855469 238.230469 155.351562 237.691406 C 153.847656 237.15625 152.359375 236.582031 150.882812 235.96875 C 149.40625 235.359375 147.949219 234.710938 146.503906 234.027344 C 145.0625 233.347656 143.636719 232.628906 142.226562 231.875 C 140.820312 231.125 139.429688 230.335938 138.0625 229.515625 C 136.691406 228.695312 135.34375 227.839844 134.015625 226.953125 C 132.6875 226.066406 131.382812 225.148438 130.101562 224.195312 C 128.816406 223.246094 127.558594 222.261719 126.324219 221.25 C 125.089844 220.238281 123.882812 219.195312 122.699219 218.121094 C 121.515625 217.050781 120.359375 215.949219 119.230469 214.820312 C 118.101562 213.691406 117.003906 212.535156 115.929688 211.351562 C 114.859375 210.167969 113.816406 208.960938 112.800781 207.726562 C 111.789062 206.492188 110.808594 205.234375 109.855469 203.953125 C 108.90625 202.667969 107.984375 201.363281 107.097656 200.035156 C 106.210938 198.707031 105.359375 197.359375 104.535156 195.992188 C 103.714844 194.621094 102.929688 193.230469 102.175781 191.824219 C 101.421875 190.414062 100.707031 188.988281 100.023438 187.546875 C 99.339844 186.101562 98.695312 184.644531 98.082031 183.167969 C 97.472656 181.695312 96.898438 180.203125 96.359375 178.699219 C 95.820312 177.199219 95.320312 175.683594 94.855469 174.152344 C 94.394531 172.625 93.96875 171.089844 93.578125 169.539062 C 93.191406 167.992188 92.84375 166.433594 92.53125 164.867188 C 92.21875 163.300781 91.945312 161.726562 91.710938 160.148438 C 91.476562 158.570312 91.28125 156.984375 91.125 155.394531 C 90.96875 153.808594 90.851562 152.214844 90.773438 150.621094 C 90.695312 149.027344 90.65625 147.429688 90.65625 145.832031 C 90.65625 144.238281 90.695312 142.640625 90.773438 141.046875 C 90.851562 139.453125 90.96875 137.859375 91.125 136.269531 C 91.28125 134.679688 91.476562 133.097656 91.710938 131.519531 C 91.945312 129.9375 92.21875 128.367188 92.53125 126.800781 C 92.84375 125.234375 93.191406 123.675781 93.578125 122.128906 C 93.96875 120.578125 94.394531 119.039062 94.855469 117.511719 C 95.320312 115.984375 95.820312 114.46875 96.359375 112.964844 C 96.898438 111.460938 97.472656 109.972656 98.082031 108.496094 C 98.695312 107.023438 99.339844 105.5625 100.023438 104.121094 C 100.707031 102.675781 101.421875 101.25 102.175781 99.84375 C 102.929688 98.433594 103.714844 97.046875 104.535156 95.675781 C 105.359375 94.308594 106.210938 92.957031 107.097656 91.628906 C 107.984375 90.304688 108.90625 88.996094 109.855469 87.714844 C 110.808594 86.433594 111.789062 85.175781 112.800781 83.941406 C 113.816406 82.707031 114.859375 81.496094 115.929688 80.3125 C 117.003906 79.132812 118.101562 77.976562 119.230469 76.847656 C 120.359375 75.71875 121.515625 74.617188 122.699219 73.542969 C 123.882812 72.472656 125.089844 71.429688 126.324219 70.417969 C 127.558594 69.402344 128.820312 68.421875 130.101562 67.46875 C 131.382812 66.519531 132.6875 65.601562 134.015625 64.714844 C 135.34375 63.824219 136.691406 62.972656 138.0625 62.152344 C 139.429688 61.332031 140.820312 60.542969 142.226562 59.789062 C 143.636719 59.039062 145.0625 58.320312 146.503906 57.636719 C 147.949219 56.957031 149.40625 56.308594 150.882812 55.699219 C 152.359375 55.085938 153.847656 54.511719 155.351562 53.972656 C 156.855469 53.4375 158.371094 52.933594 159.898438 52.472656 C 161.425781 52.007812 162.964844 51.582031 164.511719 51.195312 C 166.0625 50.808594 167.621094 50.457031 169.183594 50.144531 C 170.75 49.832031 172.324219 49.5625 173.902344 49.328125 C 175.484375 49.09375 177.066406 48.898438 178.65625 48.742188 C 180.246094 48.585938 181.835938 48.464844 183.429688 48.386719 C 185.027344 48.308594 186.621094 48.269531 188.21875 48.269531 C 189.816406 48.269531 191.410156 48.308594 193.007812 48.386719 C 194.601562 48.464844 196.191406 48.585938 197.78125 48.742188 C 199.371094 48.898438 200.953125 49.09375 202.535156 49.328125 C 204.113281 49.5625 205.6875 49.832031 207.253906 50.144531 C 208.816406 50.457031 210.375 50.808594 211.925781 51.195312 C 213.472656 51.582031 215.011719 52.007812 216.539062 52.472656 C 218.066406 52.933594 219.582031 53.4375 221.085938 53.972656 C 222.589844 54.511719 224.078125 55.085938 225.554688 55.699219 C 227.03125 56.308594 228.488281 56.957031 229.933594 57.636719 C 231.375 58.320312 232.800781 59.039062 234.210938 59.789062 C 235.617188 60.542969 237.007812 61.332031 238.375 62.152344 C 239.746094 62.972656 241.09375 63.824219 242.421875 64.714844 C 243.75 65.601562 245.054688 66.519531 246.335938 67.46875 C 247.617188 68.421875 248.878906 69.402344 250.113281 70.417969 C 251.347656 71.429688 252.554688 72.472656 253.738281 73.542969 C 254.921875 74.617188 256.078125 75.71875 257.207031 76.847656 C 258.335938 77.976562 259.433594 79.132812 260.507812 80.3125 C 261.578125 81.496094 262.621094 82.707031 263.636719 83.941406 C 264.648438 85.175781 265.628906 86.433594 266.582031 87.714844 C 267.53125 88.996094 268.453125 90.304688 269.339844 91.628906 C 270.226562 92.957031 271.078125 94.308594 271.902344 95.675781 C 272.722656 97.046875 273.507812 98.433594 274.261719 99.84375 C 275.015625 101.25 275.730469 102.675781 276.414062 104.121094 C 277.097656 105.5625 277.742188 107.023438 278.355469 108.496094 C 278.964844 109.972656 279.539062 111.460938 280.078125 112.964844 C 280.617188 114.46875 281.117188 115.984375 281.582031 117.511719 C 282.042969 119.039062 282.46875 120.578125 282.855469 122.128906 C 283.246094 123.675781 283.59375 125.234375 283.90625 126.800781 C 284.21875 128.367188 284.492188 129.9375 284.726562 131.519531 C 284.960938 133.097656 285.15625 134.679688 285.3125 136.269531 C 285.46875 137.859375 285.585938 139.453125 285.664062 141.046875 C 285.742188 142.640625 285.78125 144.238281 285.78125 145.832031 Z M 285.78125 145.832031 "/><path style=" stroke:none;fill-rule:nonzero;fill:#99aab5;fill-opacity:1;" d="M 370.011719 303.957031 L 4.988281 303.957031 L 0 354.167969 C 0 375 20.832031 375 20.832031 375 L 354.167969 375 C 354.167969 375 375 375 375 354.167969 Z M 370.011719 303.957031 "/><path style=" stroke:none;fill-rule:nonzero;fill:#ccd6dd;fill-opacity:1;" d="M 370.769531 311.582031 L 370.011719 303.957031 C 368.542969 296.269531 361.988281 291.667969 354.167969 291.667969 L 20.832031 291.667969 C 13.011719 291.667969 6.457031 296.269531 4.988281 303.957031 L 4.230469 311.582031 Z M 370.769531 311.582031 "/><path style=" stroke:none;fill-rule:nonzero;fill:#ec9dad;fill-opacity:1;" d="M 308.824219 141.980469 L 228.949219 128.980469 L 276.230469 63.269531 C 277.34375 61.730469 277.175781 59.582031 275.824219 58.230469 C 274.457031 56.886719 272.324219 56.707031 270.78125 57.824219 L 205.0625 105.09375 L 192.074219 25.230469 C 191.769531 23.34375 190.125 21.957031 188.21875 21.957031 C 186.3125 21.957031 184.667969 23.34375 184.363281 25.230469 L 171.363281 105.09375 L 105.65625 57.824219 C 104.105469 56.707031 101.980469 56.886719 100.613281 58.230469 C 99.261719 59.59375 99.09375 61.71875 100.207031 63.269531 L 147.480469 128.980469 L 67.605469 141.980469 C 65.71875 142.28125 64.332031 143.917969 64.332031 145.832031 C 64.332031 147.75 65.71875 149.386719 67.605469 149.6875 L 147.480469 162.6875 L 100.207031 228.394531 C 99.09375 229.949219 99.261719 232.082031 100.613281 233.4375 C 101.980469 234.78125 104.105469 234.957031 105.65625 233.84375 L 171.363281 186.574219 L 184.363281 266.4375 C 184.667969 268.332031 186.3125 269.707031 188.21875 269.707031 C 190.125 269.707031 191.769531 268.3125 192.074219 266.4375 L 205.0625 186.574219 L 270.769531 233.84375 C 272.3125 234.949219 274.457031 234.78125 275.8125 233.4375 C 277.167969 232.074219 277.332031 229.949219 276.21875 228.394531 L 228.949219 162.6875 L 308.824219 149.6875 C 310.71875 149.386719 312.09375 147.738281 312.09375 145.832031 C 312.09375 143.925781 310.71875 142.28125 308.824219 141.980469 Z M 308.824219 141.980469 "/></g></svg>