<svg xmlns="http://www.w3.org/2000/svg" xmlns:xlink="http://www.w3.org/1999/xlink" width="500" zoomAndPan="magnify" viewBox="0 0 375 374.999991" height="500" preserveAspectRatio="xMidYMid meet" version="1.2"><defs><clipPath id="6a25741005"><path d="M 10.226562 0 L 364.976562 0 L 364.976562 375 L 10.226562 375 Z M 10.226562 0 "/></clipPath></defs><g id="3aa274c18e"><g clip-rule="nonzero" clip-path="url(#6a25741005)"><path style=" stroke:none;fill-rule:nonzero;fill:#000000;fill-opacity:1;" d="M 364.582031 197.917969 C 364.582031 176.4375 360.757812 155.84375 353.746094 136.792969 C 348.957031 192.925781 319.027344 221.761719 287.757812 208.332031 C 258.464844 195.75 278.207031 146.699219 279.664062 123.292969 C 282.121094 83.613281 279.539062 38.199219 207.464844 0.4375 C 237.414062 57.730469 210.933594 93.324219 183.164062 95.488281 C 152.351562 97.894531 124.132812 69.011719 134.550781 22.136719 C 100.820312 46.988281 99.839844 88.824219 110.246094 115.886719 C 121.101562 144.09375 109.808594 167.53125 83.339844 170.136719 C 53.757812 173.050781 37.320312 138.457031 52.476562 83.332031 C 26.246094 114.21875 10.414062 154.21875 10.414062 197.917969 C 10.414062 295.71875 89.695312 375 187.496094 375 C 285.300781 375 364.582031 295.71875 364.582031 197.917969 Z M 364.582031 197.917969 "/></g><path style=" stroke:none;fill-rule:nonzero;fill:#000000;fill-opacity:1;" d="M 295.769531 249.988281 C 297.308594 282.113281 269.089844 294.707031 253.902344 288.625 C 231.964844 279.84375 237.851562 264.761719 232.207031 233.511719 C 226.558594 202.261719 204.863281 180.5625 172.746094 171.011719 C 196.183594 236.980469 159.757812 261.292969 140.664062 265.636719 C 121.164062 270.074219 101.570312 265.625 99.332031 223.894531 C 76.582031 246.542969 62.496094 277.875 62.496094 312.5 C 62.496094 316.332031 62.738281 320.105469 63.070312 323.855469 C 95.050781 355.457031 138.976562 375 187.496094 375 C 236.019531 375 279.945312 355.457031 311.925781 323.855469 C 312.257812 320.105469 312.496094 316.332031 312.496094 312.5 C 312.496094 289.71875 306.414062 268.375 295.769531 249.988281 Z M 295.769531 249.988281 "/></g></svg>